<svg xmlns="http://www.w3.org/2000/svg" width="67" height="56" viewBox="0 0 312.13 262"><path fill-rule="evenodd" d="M187.04 221.24H76.24c7.37 4.38 12.22 9.57 13.03 17.3.8 7.65-1.6 14.16-7.7 19.02-8.75 6.93-21.75 5.58-28.8-2.88-8.45-10.17-5.9-21.85 7.82-33.65-5.4 0-10.1.1-14.9-.02-6-.1-9.5-3.4-9.5-8.6 0-5.2 3.5-8.3 9.6-8.3h155c1.5 0 3 .1 4.5 0 5.7-.1 9.6-3.7 9.5-8.7-.1-5.1-3.8-8.3-9.7-8.4-5.38 0-10.7.1-16 0l-140.3-1c-13.5-.1-24.9-10.1-28.3-24.6-6.47-28-12.9-56.1-19.2-84.2C.5 73-.4 68.6.1 64.4c1.33-11.3 9.82-18.34 21.2-18.35 45-.02 90 0 135 0 25.16 0 50.32-.1 75.5.08 3.64.02 5.23-1.02 6.07-4.64 1.6-6.7 3.7-13.2 5.6-19.7 3.8-13 15.46-21.8 29-21.8h30c5.8 0 9.66 3.4 9.64 8.4 0 5-3.8 8.34-9.7 8.4-9.3 0-18.6-.1-28 0-8.3.06-13.1 3.52-15.2 11.6-11.3 43.42-22.5 86.9-33.8 130.34-1.3 5.1-3.3 10-5.2 15.5 9.6 7.1 14.2 17.2 10 29.56-4.3 12.84-14.2 18.1-28.4 16.85 12.3 8.6 15.9 16.7 12.7 26.7-2.8 8.9-10.5 14.5-19.9 14.4-9.3 0-17.2-6-19.8-14.7-2.8-9.8.9-18.2 12.3-25.9zM41.58 62.9c1.08 1.34 1.5 2 2.04 2.52 33.8 33.83 67.6 67.66 101.53 101.38 1.32 1.32 3.74 2.1 5.67 2.12 12 .2 24 .1 36 .08 1.22 0 2.44-.2 3.66-.3l.9-1.4c-1.5-1.03-3.2-1.88-4.46-3.14-27.73-27.66-55.44-55.33-83.08-83.07-5.62-5.7-10.96-11.6-16.48-17.4-.5-.5-1.4-.9-2.12-.9-14.25-.1-28.5-.1-43.66-.1zM133.75 169l.84-1.48c-1.5-1.14-3.1-2.14-4.4-3.43-31.9-31.9-64-63.7-95.6-95.9-4-4.1-7.5-6.2-13-5.4-4.2.6-5.9 2.4-4.9 6.7 2 8.6 4.1 17.1 5.8 25.8 1 5 3.23 8.8 7 12.5 19.7 19.2 39 38.8 58.46 58.1 1.2 1.2 2.87 2.8 4.35 2.8 13.77.2 27.53.1 41.3.1zM99.15 62.9L203.2 167c1.7-3.02 4.03-6.06 5.16-9.5 2.02-6.14 3.17-12.57 4.98-18.8.83-2.83 0-4.57-1.98-6.52-22.44-22.33-44.8-44.75-67.22-67.1-.98-.96-2.43-2.05-3.67-2.06-13.8-.15-27.6-.1-41.36-.1zm117.64 61.67c2.8-11.07 5.6-21.8 8.1-32.62.3-1.2-.8-3.1-1.8-4.13-7.5-7.63-15-15.2-22.7-22.58-1.4-1.3-3.7-2.2-5.7-2.24-11.2-.2-22.3-.1-33.5-.1H155c20.78 20.76 41 41 61.7 61.67zm-188.4-4.42c2.9 12.8 5.8 25.9 9 38.94 1.3 5.5 5.4 9.2 10.9 9.5 9.7.5 19.4.1 29 .1l-48.9-48.6zm183.9-57.07l16 15.94 3.9-15.93c-7.1-.1-13.7-.1-20-.1z" clip-rule="evenodd"/></svg>
