<svg xmlns="http://www.w3.org/2000/svg" width="67" height="67" viewBox="0 0 67 67"><g fill-rule="evenodd" clip-rule="evenodd"><path d="M39.096 49.906V36.86c0-1.258-.884-2.146-2.137-2.146-2.24 0-4.48.03-6.718-.014-1.098-.022-2.173.964-2.165 2.15.026 4.15.01 8.3.01 12.45v.592c-.176.008-.326.02-.476.02-2.563 0-5.127 0-7.692-.002-1.377-.002-2.087-.716-2.088-2.1 0-4.228 0-8.454-.01-12.682 0-.332.084-.574.32-.82 4.666-4.85 9.32-9.71 13.98-14.565 1.01-1.053 2.08-1.05 3.098.012 4.628 4.82 9.256 9.643 13.873 14.473.14.147.248.396.248.597.013 4.383.008 8.766.003 13.148 0 1.088-.693 1.91-1.744 1.922-2.81.036-5.623.014-8.502.014z"/><path d="M33.488 14.867c-.104.137-.192.29-.312.41L14.018 34.553c-.436.44-.908.765-1.566.57-.938-.28-1.295-1.324-.73-2.138.097-.14.22-.262.34-.383 6.823-6.868 13.647-13.735 20.472-20.6.67-.676 1.46-.674 2.127-.003 6.827 6.864 13.65 13.732 20.476 20.6.422.424.745.88.574 1.525-.25.948-1.29 1.35-2.1.797-.19-.13-.356-.3-.52-.465-6.356-6.39-12.71-12.784-19.06-19.18-.13-.13-.2-.318-.296-.48l-.244.066z"/></g></svg>