<svg xmlns="http://www.w3.org/2000/svg" width="67" height="67" viewBox="87 0 67 67"><g fill="#010101"><path d="M120.5 3.5c-16.6 0-30 13.4-30 30s13.4 30 30 30 30-13.4 30-30-13.4-30-30-30zM108.2 17c0-1.5 1-2.5 2.4-2.5h19c1.3 0 2.4 1 2.4 2.4v4.3h-2.4V17h-19v4.6h-2.4V17zm31 21.3c0 1.3-1.2 2.3-2.5 2.3H132V50c0 1.5-1 2.5-2.4 2.5h-19c-1.3 0-2.4-1-2.4-2.4v-9h-4.8c-1.3 0-2.3-1-2.3-2.3v-12c0-1.2 1-2.3 2.7-2.3H137c1.2 0 2.3 1 2.3 2.5v12z"/><circle cx="134.3" cy="28.7" r="2.4"/><path d="M110.6 50h19V33.6h-19V50zm2.3-14h9.2v2.3H113V36zm0 4.6h14V43h-14v-2.4zm0 4.8h14v2.4h-14v-2.4z"/></g></svg>