<svg xmlns="http://www.w3.org/2000/svg" width="67" height="67" viewBox="0 0 67 67"><path fill-rule="evenodd" d="M49.96 45.73c-2.95-2.57-5.9-5.14-8.87-7.68-.5-.4-.6-.67-.3-1.25 1.22-2.44 1.6-5.04 1.14-7.74-1.06-6.46-7.06-11.23-13.4-10.68-7 .6-12.05 6-12.04 12.82.03 4.8 2.63 9.17 6.9 11.3 4.56 2.28 9 1.95 13.24-.86.56-.38.84-.33 1.3.1l9 7.8c.95.8 2 .85 2.87.18 1.5-1.15 1.57-2.76.14-4zm-20.5-5.22c-5.2 0-9.34-4.2-9.3-9.4.03-5.14 4.22-9.27 9.4-9.24 5.16.02 9.3 4.18 9.28 9.35 0 5.2-4.2 9.36-9.4 9.34z" clip-rule="evenodd"/></svg>