<svg xmlns="http://www.w3.org/2000/svg" width="67" height="67" viewBox="0 0 67 67"><path d="M62.98 31.79c-.54-6.5-2.92-12.3-7.18-17.2-4.2-4.9-9.44-8.1-15.67-9.6-1.87-.5-3.78-.78-5.72-.8-.1 0-.2-.08-.302-.1l-.068.14h-2c-.45.05-.9.1-1.36.12-11.34.85-21.27 8.2-25.5 18.8-1.03 2.58-1.7 5.26-1.96 8.03-.05.55-.08 1.13-.12 1.7 0 .12-.04.23-.06.34v2l.12 1.37c.6 7.07 3.3 13.18 8.17 18.3C15 58.7 19.4 61.4 24.5 62.9c2.38.7 4.78 1.1 7.2 1.2.14 0 .25 0 .37.05h2l1.35-.1c5.76-.46 10.96-2.4 15.56-5.85 5.78-4.38 9.54-10.1 11.26-17.1.46-1.85.72-3.7.8-5.6 0-.1.02-.24.04-.36v-2l-.1-1.35zM51.5 35.5h-16v16h-4v-16h-16v-4h16v-16h4v16h16v4z"/></svg>